<svg width="96" height="96" viewBox="0 0 96 96" fill="none" xmlns="http://www.w3.org/2000/svg">
<rect width="96" height="96" fill="white"/>
<path d="M48 85.64H23.76C9.87998 85.64 4.07998 75.72 10.8 63.6L23.28 41.12L35.04 20C42.16 7.16 53.84 7.16 60.96 20L72.72 41.16L85.2 63.64C91.92 75.76 86.08 85.68 72.24 85.68H48V85.64Z" fill="#FF9E0C"/>
<path d="M8.17706 62.1439L8.17628 62.1453C4.49826 68.7789 3.90819 75.4713 6.96776 80.6836C10.029 85.8989 16.1609 88.64 23.76 88.64H47.5089C47.6687 88.6663 47.8327 88.68 48 88.68H72.24C79.8221 88.68 85.9505 85.9371 89.0158 80.7261C92.0806 75.5158 91.504 68.8229 87.8237 62.1853L87.8229 62.1839L75.3429 39.7039L75.3422 39.7026L63.5836 18.5451C63.5832 18.5444 63.5828 18.5436 63.5823 18.5429C63.5823 18.5428 63.5823 18.5427 63.5822 18.5426C59.728 11.5934 54.1999 7.37 48 7.37C41.8001 7.37 36.272 11.5934 32.4178 18.5425C32.4173 18.5434 32.4168 18.5443 32.4163 18.5451L20.6589 39.6605L20.6571 39.6639L8.17706 62.1439Z" stroke="#FF9E0C" stroke-opacity="0.1" stroke-width="6" stroke-linecap="round" stroke-linejoin="round"/>
<path d="M48 36V56" stroke="white" stroke-width="3.5" stroke-linecap="round" stroke-linejoin="round"/>
<path d="M47.978 68H48.014" stroke="white" stroke-width="3.5" stroke-linecap="round" stroke-linejoin="round"/>
</svg>
