<svg width="25" height="24" viewBox="0 0 25 24" fill="none" xmlns="http://www.w3.org/2000/svg">
<g id="vuesax/linear/setting-2">
<g id="setting-2">
<path id="Vector" d="M12.8334 15C14.4902 15 15.8334 13.6569 15.8334 12C15.8334 10.3431 14.4902 9 12.8334 9C11.1765 9 9.83337 10.3431 9.83337 12C9.83337 13.6569 11.1765 15 12.8334 15Z" stroke="#A9A9A9" stroke-width="1.5" stroke-miterlimit="10" stroke-linecap="round" stroke-linejoin="round"/>
<path id="Vector_2" d="M2.83337 12.88V11.12C2.83337 10.08 3.68337 9.22 4.73337 9.22C6.54337 9.22 7.28337 7.94 6.37337 6.37C5.85337 5.47 6.16337 4.3 7.07337 3.78L8.80337 2.79C9.59337 2.32 10.6134 2.6 11.0834 3.39L11.1934 3.58C12.0934 5.15 13.5734 5.15 14.4834 3.58L14.5934 3.39C15.0634 2.6 16.0834 2.32 16.8734 2.79L18.6034 3.78C19.5134 4.3 19.8234 5.47 19.3034 6.37C18.3934 7.94 19.1334 9.22 20.9434 9.22C21.9834 9.22 22.8434 10.07 22.8434 11.12V12.88C22.8434 13.92 21.9934 14.78 20.9434 14.78C19.1334 14.78 18.3934 16.06 19.3034 17.63C19.8234 18.54 19.5134 19.7 18.6034 20.22L16.8734 21.21C16.0834 21.68 15.0634 21.4 14.5934 20.61L14.4834 20.42C13.5834 18.85 12.1034 18.85 11.1934 20.42L11.0834 20.61C10.6134 21.4 9.59337 21.68 8.80337 21.21L7.07337 20.22C6.16337 19.7 5.85337 18.53 6.37337 17.63C7.28337 16.06 6.54337 14.78 4.73337 14.78C3.68337 14.78 2.83337 13.92 2.83337 12.88Z" stroke="#A9A9A9" stroke-width="1.5" stroke-miterlimit="10" stroke-linecap="round" stroke-linejoin="round"/>
</g>
</g>
</svg>
