<svg width="24" height="24" viewBox="0 0 24 24" fill="none" xmlns="http://www.w3.org/2000/svg">
<g id="file-01">
<path id="Icon" d="M17.2 4C18.8802 4 19.7202 4 20.362 4.32698C20.9265 4.6146 21.3854 5.07354 21.673 5.63803C22 6.27976 22 7.11984 22 8.8L22 15.2C22 16.8802 22 17.7202 21.673 18.362C21.3854 18.9265 20.9265 19.3854 20.362 19.673C19.7202 20 18.8802 20 17.2 20L6.8 20C5.11984 20 4.27976 20 3.63803 19.673C3.07354 19.3854 2.6146 18.9265 2.32698 18.362C2 17.7202 2 16.8802 2 15.2L2 8.8C2 7.11984 2 6.27976 2.32698 5.63803C2.6146 5.07354 3.07354 4.6146 3.63803 4.32698C4.27976 4 5.11984 4 6.8 4L17.2 4Z" stroke="#027BFE" stroke-width="1.5" stroke-linecap="round" stroke-linejoin="round"/>
<path id="Vector" d="M20 12.2317H17.7606C17.6884 12.2317 17.6198 12.2006 17.5723 12.1463L16.4947 10.9132C16.3741 10.7752 16.1508 10.8096 16.0774 10.9776L14.9814 13.4858C14.908 13.6538 14.6847 13.6883 14.5641 13.5503L13.6336 12.4856C13.5232 12.3592 13.3221 12.3754 13.2333 12.5177L11.3917 15.4678C11.2719 15.6596 10.9793 15.6065 10.9346 15.3848L9.7935 9.72707C9.74619 9.49249 9.42806 9.45203 9.32354 9.6673L7.48656 13.4508C7.40178 13.6254 7.15899 13.641 7.05258 13.4786L6.06292 11.9688C5.97221 11.8304 5.77449 11.8167 5.66559 11.9413L5.01589 12.6847C4.96841 12.739 4.89979 12.7702 4.82764 12.7702H4" stroke="#027BFE" stroke-width="1.5" stroke-linecap="round"/>
</g>
</svg>
