<svg width="25" height="24" viewBox="0 0 25 24" fill="none" xmlns="http://www.w3.org/2000/svg">
<g id="lungs">
<path id="Vector" d="M20.1607 6.82086C18.5007 4.60383 15.0007 4.30423 15.0007 6.4913C15.0583 7.32205 14.9478 8.15586 14.6757 8.94302C13.7807 7.9893 14.0007 7.68471 14.0007 0.499331C14.0007 0.3669 13.948 0.239893 13.8543 0.146251C13.7605 0.0526079 13.6333 0 13.5007 0C13.3681 0 13.2409 0.0526079 13.1471 0.146251C13.0534 0.239893 13.0007 0.3669 13.0007 0.499331V7.24529C13.0007 9.09282 13.9407 9.6321 17.1057 12.7929C17.1504 12.8411 17.176 12.904 17.1775 12.9697C17.1791 13.0354 17.1566 13.0994 17.1142 13.1497C17.0718 13.2 17.0125 13.2331 16.9474 13.2428C16.8823 13.2525 16.8159 13.2381 16.7607 13.2023L12.8607 10.486C12.6086 10.3098 12.3084 10.2153 12.0007 10.2153C11.693 10.2153 11.3928 10.3098 11.1407 10.486C7.0257 13.3621 7.1407 13.407 6.8957 13.1823C6.84563 13.1319 6.81753 13.0637 6.81753 12.9926C6.81753 12.9215 6.84563 12.8533 6.8957 12.8028L10.0007 9.71698C10.3287 9.38942 10.5882 9.00002 10.7642 8.57142C10.9401 8.14281 11.029 7.68355 11.0257 7.22033V0.499331C11.0257 0.3669 10.973 0.239893 10.8793 0.146251C10.7855 0.0526079 10.6583 0 10.5257 0C10.3931 0 10.2659 0.0526079 10.1721 0.146251C10.0784 0.239893 10.0257 0.3669 10.0257 0.499331V7.24529C10.027 7.87671 9.7854 8.48451 9.3507 8.94302C9.07306 8.15688 8.9541 7.32361 9.0007 6.4913C9.0007 4.36415 5.5757 4.58386 3.9007 6.74097C1.3763 9.9972 0.00469103 13.9977 0.000700257 18.1157C0.000700257 20.8371 -0.0492998 20.4376 0.6957 22.6596C0.822998 23.0439 1.06941 23.3778 1.39929 23.613C1.72917 23.8482 2.12541 23.9725 2.5307 23.9679C3.49623 23.9526 4.42962 23.619 5.1857 23.0192C7.3807 21.5461 10.0007 21.3714 10.0007 18.9746V12.4833C11.7507 11.2599 11.9057 11.0202 12.2857 11.2849L14.0007 12.4833V18.9746C14.0007 20.5824 15.2807 21.3414 16.8157 21.9706C17.7497 22.3809 18.6408 22.8827 19.4757 23.4686C20.8957 24.2825 22.7857 24.2625 23.3057 22.6946C24.0707 20.3827 24.0007 20.7722 24.0007 18.1157C23.9974 14.0318 22.6479 10.0626 20.1607 6.82086ZM9.0007 18.9746C9.0007 20.0781 7.9107 20.5874 6.8157 21.0218C5.83636 21.4437 4.90172 21.9622 4.0257 22.5698C3.2057 23.0441 1.9457 23.2538 1.6457 22.3451C0.9307 20.2129 1.0007 20.6873 1.0007 18.1157C1.00286 14.2477 2.28227 10.4883 4.6407 7.42006C4.97151 6.97433 5.40286 6.61274 5.89977 6.36462C6.39668 6.1165 6.94515 5.98883 7.5007 5.99197C8.5007 5.99197 7.5007 7.3152 8.5707 9.71199L7.1407 11.1351C6.82778 10.8325 6.59568 10.4564 6.46555 10.0413C6.33542 9.62613 6.31141 9.18506 6.3957 8.75827C6.40555 8.69269 6.40237 8.62583 6.38634 8.56148C6.37031 8.49714 6.34175 8.43657 6.30229 8.38325C6.26282 8.32993 6.21323 8.28489 6.15633 8.25071C6.09944 8.21653 6.03636 8.19387 5.9707 8.18404C5.90504 8.1742 5.83808 8.17738 5.77365 8.19338C5.70922 8.20939 5.64857 8.23791 5.59518 8.27733C5.54179 8.31674 5.49669 8.36627 5.46246 8.42308C5.42824 8.4799 5.40555 8.5429 5.3957 8.60847C5.31793 9.0478 5.31793 9.49735 5.3957 9.93669C4.95085 10.0304 4.53556 10.231 4.1857 10.5209C4.10802 10.5872 4.05256 10.6758 4.0268 10.7746C4.00104 10.8733 4.00622 10.9776 4.04163 11.0734C4.07704 11.1691 4.14099 11.2518 4.22486 11.3101C4.30873 11.3685 4.40849 11.3997 4.5107 11.3997C4.8757 11.3997 4.8807 11.0452 5.7307 10.9004C6.3757 12.1238 6.6257 11.6394 6.1707 12.0988C5.98832 12.282 5.86658 12.5167 5.82188 12.7711C5.77718 13.0256 5.81167 13.2876 5.9207 13.5219C5.66461 13.8019 5.46285 14.127 5.3257 14.4806C2.2657 14.7952 2.0557 17.0522 3.0007 17.0522C3.9457 17.0522 2.8557 15.8787 5.1657 15.5142C4.9857 17.182 4.8257 18.3404 3.4057 19.0345C3.30893 19.0865 3.23201 19.1689 3.18684 19.269C3.14167 19.369 3.13077 19.4811 3.15581 19.588C3.18085 19.6948 3.24045 19.7905 3.32539 19.8601C3.41032 19.9298 3.51587 19.9695 3.6257 19.9732C3.9607 19.9732 5.0007 19.3491 5.5007 18.3454C5.89595 18.8081 6.4343 19.1261 7.0307 19.2492C7.16331 19.2664 7.29733 19.2303 7.40329 19.1489C7.50925 19.0674 7.57846 18.9472 7.5957 18.8148C7.61294 18.6824 7.57679 18.5485 7.49522 18.4427C7.41364 18.3369 7.29331 18.2678 7.1607 18.2506C6.62864 18.0658 6.18006 17.6975 5.8957 17.2119C6.3607 15.2146 5.8957 15.0149 6.6607 14.161C7.4457 14.4307 7.8807 13.9513 8.9857 13.1624L9.0007 18.9746ZM22.3557 22.365C22.0557 23.2788 20.7557 23.0341 19.9707 22.5847C19.0985 21.9698 18.1652 21.4461 17.1857 21.0218C16.0957 20.5724 15.0007 20.0681 15.0007 18.9746V13.1923C16.1407 13.9863 16.5457 14.4456 17.3207 14.191C18.0857 15.0548 17.6007 15.1397 18.0907 17.2419C17.8063 17.7275 17.3578 18.0958 16.8257 18.2805C16.6931 18.2977 16.5728 18.3668 16.4912 18.4727C16.4096 18.5785 16.3735 18.7123 16.3907 18.8448C16.4079 18.9772 16.4771 19.0974 16.5831 19.1788C16.6891 19.2603 16.8231 19.2964 16.9557 19.2792C17.5629 19.1546 18.1086 18.8249 18.5007 18.3454C19.0007 19.3441 20.0607 19.9732 20.3907 19.9732C20.5041 19.9737 20.6142 19.9357 20.7031 19.8654C20.792 19.7952 20.8543 19.6969 20.8799 19.5866C20.9054 19.4763 20.8927 19.3606 20.8438 19.2585C20.7949 19.1564 20.7127 19.0739 20.6107 19.0245C19.2007 18.3354 19.0357 17.2119 18.8507 15.5292C21.1607 15.8937 20.1157 17.0671 21.0157 17.0671C21.9157 17.0671 21.7557 14.8102 18.6907 14.4956C18.5475 14.1404 18.3389 13.8152 18.0757 13.5369C18.1847 13.3026 18.2192 13.0406 18.1745 12.7861C18.1298 12.5316 18.0081 12.297 17.8257 12.1138C17.3707 11.6594 17.6257 12.1138 18.2707 10.9154C19.1407 11.0752 19.1007 11.4147 19.4857 11.4147C19.5879 11.4147 19.6877 11.3834 19.7715 11.3251C19.8554 11.2667 19.9194 11.1841 19.9548 11.0884C19.9902 10.9926 19.9954 10.8883 19.9696 10.7895C19.9438 10.6908 19.8884 10.6022 19.8107 10.5359C19.4608 10.2459 19.0455 10.0454 18.6007 9.95167C18.6785 9.51233 18.6785 9.06278 18.6007 8.62345C18.5808 8.49102 18.5091 8.3719 18.4012 8.2923C18.2934 8.21271 18.1583 8.17915 18.0257 8.19902C17.8931 8.21888 17.7738 8.29054 17.6941 8.39823C17.6144 8.50592 17.5808 8.64082 17.6007 8.77325C17.685 9.20004 17.661 9.64112 17.5309 10.0563C17.4007 10.4714 17.1686 10.8474 16.8557 11.1501L15.4257 9.72198C15.8754 8.70715 16.0727 7.59875 16.0007 6.4913C16.0007 5.49264 18.3107 6.01694 19.3657 7.42505C21.7213 10.4926 22.9989 14.25 23.0007 18.1157C23.0007 20.7322 23.0657 20.2329 22.3557 22.3501V22.365Z" fill="#FF9E0C"/>
</g>
</svg>
