<svg width="25" height="24" viewBox="0 0 25 24" fill="none" xmlns="http://www.w3.org/2000/svg">
<g id="vuesax/bold/setting-2">
<g id="setting-2">
<path id="Vector" d="M20.9334 9.21994C19.1234 9.21994 18.3834 7.93994 19.2834 6.36994C19.8034 5.45994 19.4934 4.29994 18.5834 3.77994L16.8534 2.78994C16.0634 2.31994 15.0434 2.59994 14.5734 3.38994L14.4634 3.57994C13.5634 5.14994 12.0834 5.14994 11.1734 3.57994L11.0634 3.38994C10.6134 2.59994 9.59337 2.31994 8.80337 2.78994L7.07337 3.77994C6.16337 4.29994 5.85337 5.46994 6.37337 6.37994C7.28337 7.93994 6.54337 9.21994 4.73337 9.21994C3.69337 9.21994 2.83337 10.0699 2.83337 11.1199V12.8799C2.83337 13.9199 3.68337 14.7799 4.73337 14.7799C6.54337 14.7799 7.28337 16.0599 6.37337 17.6299C5.85337 18.5399 6.16337 19.6999 7.07337 20.2199L8.80337 21.2099C9.59337 21.6799 10.6134 21.3999 11.0834 20.6099L11.1934 20.4199C12.0934 18.8499 13.5734 18.8499 14.4834 20.4199L14.5934 20.6099C15.0634 21.3999 16.0834 21.6799 16.8734 21.2099L18.6034 20.2199C19.5134 19.6999 19.8234 18.5299 19.3034 17.6299C18.3934 16.0599 19.1334 14.7799 20.9434 14.7799C21.9834 14.7799 22.8434 13.9299 22.8434 12.8799V11.1199C22.8334 10.0799 21.9834 9.21994 20.9334 9.21994ZM12.8334 15.2499C11.0434 15.2499 9.58337 13.7899 9.58337 11.9999C9.58337 10.2099 11.0434 8.74994 12.8334 8.74994C14.6234 8.74994 16.0834 10.2099 16.0834 11.9999C16.0834 13.7899 14.6234 15.2499 12.8334 15.2499Z" fill="#2F9DFE"/>
</g>
</g>
</svg>
