<svg width="32" height="32" viewBox="0 0 32 32" fill="none" xmlns="http://www.w3.org/2000/svg">
<g id="Heart Rate">
<path id="Vector" d="M27.4243 15.9997C27.7983 14.807 28 13.6111 28 12.4514C28 8.51653 25.012 5.33301 21.328 5.33301C19.156 5.33301 17.212 6.45361 16 8.18544C14.788 6.45361 12.856 5.33301 10.672 5.33301C6.988 5.33301 4 8.51653 4 12.4514C4 13.9152 4.22986 15.3264 4.65379 16.6663M27.4243 15.9997C25.8751 20.9396 21.3701 25.8245 16 27.8604C10.7173 25.8577 6.27188 21.7809 4.65379 16.6663M27.4243 15.9997H24.1381C24.0497 15.9997 23.9649 15.9646 23.9024 15.902L22.327 14.3267C22.1661 14.1658 21.8949 14.2098 21.7932 14.4133L20.2068 17.586C20.1051 17.7895 19.8339 17.8335 19.673 17.6727L18.2782 16.2779C18.1326 16.1323 17.891 16.1523 17.7713 16.3199L15.0964 20.0647C14.9295 20.2983 14.565 20.2257 14.5004 19.9459L12.8617 12.8447C12.793 12.5472 12.3938 12.4909 12.2455 12.7578L9.58297 17.5503C9.46568 17.7614 9.16982 17.7817 9.02492 17.5884L7.56394 15.6405C7.44223 15.4782 7.205 15.4613 7.06157 15.6048L6.09763 16.5687C6.03512 16.6312 5.95033 16.6663 5.86193 16.6663H5.2643H4.65379" stroke="#FD2E58" stroke-width="1.5" stroke-linecap="round" stroke-linejoin="round"/>
</g>
</svg>
