<svg width="768" height="368" viewBox="0 0 768 368" fill="none" xmlns="http://www.w3.org/2000/svg">
<mask id="mask0_399_6101" style="mask-type:alpha" maskUnits="userSpaceOnUse" x="0" y="-401" width="770" height="770">
<line x1="0.5" y1="-400" x2="0.499966" y2="368" stroke="#EAECF0"/>
<line x1="48.5" y1="-400" x2="48.5" y2="368" stroke="#EAECF0"/>
<line x1="96.5" y1="-400" x2="96.5" y2="368" stroke="#EAECF0"/>
<line x1="144.5" y1="-400" x2="144.5" y2="368" stroke="#EAECF0"/>
<line x1="192.5" y1="-400" x2="192.5" y2="368" stroke="#EAECF0"/>
<line x1="240.5" y1="-400" x2="240.5" y2="368" stroke="#EAECF0"/>
<line x1="288.5" y1="-400" x2="288.5" y2="368" stroke="#EAECF0"/>
<line x1="336.5" y1="-400" x2="336.5" y2="368" stroke="#EAECF0"/>
<line x1="384.5" y1="-400" x2="384.5" y2="368" stroke="#EAECF0"/>
<line x1="432.5" y1="-400" x2="432.5" y2="368" stroke="#EAECF0"/>
<line x1="480.5" y1="-400" x2="480.5" y2="368" stroke="#EAECF0"/>
<line x1="528.5" y1="-400" x2="528.5" y2="368" stroke="#EAECF0"/>
<line x1="576.5" y1="-400" x2="576.5" y2="368" stroke="#EAECF0"/>
<line x1="624.5" y1="-400" x2="624.5" y2="368" stroke="#EAECF0"/>
<line x1="672.5" y1="-400" x2="672.5" y2="368" stroke="#EAECF0"/>
<line x1="720.5" y1="-400" x2="720.5" y2="368" stroke="#EAECF0"/>
<line x1="2.18557e-08" y1="367.5" x2="768" y2="367.501" stroke="#EAECF0"/>
<line x1="2.18557e-08" y1="319.5" x2="768" y2="319.501" stroke="#EAECF0"/>
<line x1="2.18557e-08" y1="271.5" x2="768" y2="271.501" stroke="#EAECF0"/>
<line x1="2.18557e-08" y1="223.5" x2="768" y2="223.501" stroke="#EAECF0"/>
<line x1="2.18557e-08" y1="175.5" x2="768" y2="175.501" stroke="#EAECF0"/>
<line x1="2.18557e-08" y1="127.5" x2="768" y2="127.501" stroke="#EAECF0"/>
<line x1="2.18557e-08" y1="79.5" x2="768" y2="79.5" stroke="#EAECF0"/>
<line x1="2.18557e-08" y1="31.5" x2="768" y2="31.5" stroke="#EAECF0"/>
</mask>
<g mask="url(#mask0_399_6101)">
<circle cx="384" cy="-16" r="359" fill="url(#paint0_radial_399_6101)"/>
</g>
<defs>
<radialGradient id="paint0_radial_399_6101" cx="0" cy="0" r="1" gradientUnits="userSpaceOnUse" gradientTransform="translate(384 -16) rotate(90) scale(329.083)">
<stop stop-color="#F7F7F7"/>
<stop offset="1" stop-color="#D9D9D9" stop-opacity="0"/>
</radialGradient>
</defs>
</svg>
