<svg width="25" height="24" viewBox="0 0 25 24" fill="none" xmlns="http://www.w3.org/2000/svg">
<g id="vuesax/bold/frame">
<g id="frame">
<path id="Vector" d="M12.5001 2C9.88006 2 7.75006 4.13 7.75006 6.75C7.75006 9.32 9.76006 11.4 12.3801 11.49C12.4601 11.48 12.5401 11.48 12.6001 11.49C12.6201 11.49 12.6301 11.49 12.6501 11.49C12.6601 11.49 12.6601 11.49 12.6701 11.49C15.2301 11.4 17.2401 9.32 17.2501 6.75C17.2501 4.13 15.1201 2 12.5001 2Z" fill="#2F9DFE"/>
<path id="Vector_2" d="M17.5801 14.15C14.7901 12.29 10.2401 12.29 7.43008 14.15C6.16008 15 5.46008 16.15 5.46008 17.38C5.46008 18.61 6.16008 19.75 7.42008 20.59C8.82008 21.53 10.6601 22 12.5001 22C14.3401 22 16.1801 21.53 17.5801 20.59C18.8401 19.74 19.5401 18.6 19.5401 17.36C19.5301 16.13 18.8401 14.99 17.5801 14.15Z" fill="#2F9DFE"/>
</g>
</g>
</svg>
