<svg width="32" height="32" viewBox="0 0 32 32" fill="none" xmlns="http://www.w3.org/2000/svg">
<g id="Stethoscope">
<path id="Vector" d="M9.99984 6.66634V6.66634C9.69029 6.66634 9.53552 6.66634 9.40504 6.67776C7.9547 6.80465 6.80481 7.95453 6.67792 9.40487C6.6665 9.53536 6.6665 9.69013 6.6665 9.99967V15.9997C6.6665 16.6188 6.6665 16.9283 6.68934 17.1893C6.94311 20.09 9.24289 22.3897 12.1436 22.6435C12.4045 22.6663 12.7141 22.6663 13.3332 22.6663V22.6663M9.99984 6.66634C9.99984 7.40272 10.5968 7.99967 11.3332 7.99967C12.0695 7.99967 12.6665 7.40272 12.6665 6.66634C12.6665 5.92996 12.0695 5.33301 11.3332 5.33301C10.5968 5.33301 9.99984 5.92996 9.99984 6.66634ZM17.3332 6.66634C17.3332 7.40272 16.7362 7.99967 15.9998 7.99967C15.2635 7.99967 14.6665 7.40272 14.6665 6.66634C14.6665 5.92996 15.2635 5.33301 15.9998 5.33301C16.7362 5.33301 17.3332 5.92996 17.3332 6.66634ZM17.3332 6.66634V6.66634C18.8059 6.66634 19.9998 7.86025 19.9998 9.33301V15.9997C19.9998 16.6188 19.9998 16.9283 19.977 17.1893C19.7232 20.09 17.4235 22.3897 14.5228 22.6435C14.2618 22.6663 13.9523 22.6663 13.3332 22.6663V22.6663M13.3332 22.6663C13.3332 29.333 24.6665 29.9997 24.6665 22.6663V17.333" stroke="#00A811" stroke-width="1.5"/>
<path id="Vector_2" d="M26.6665 15.333C26.6665 16.4376 25.7711 17.333 24.6665 17.333C23.5619 17.333 22.6665 16.4376 22.6665 15.333C22.6665 14.2284 23.5619 13.333 24.6665 13.333C25.7711 13.333 26.6665 14.2284 26.6665 15.333Z" stroke="#00A811" stroke-width="1.5"/>
<path id="Vector_3" d="M24.6665 15.3203H24.6808V15.3346H24.6665V15.3203Z" stroke="#00A811" stroke-width="1.5" stroke-linejoin="round"/>
</g>
</svg>
