<svg width="25" height="24" viewBox="0 0 25 24" fill="none" xmlns="http://www.w3.org/2000/svg">
<g id="vuesax/bold/category">
<g id="category">
<path id="Vector" d="M7.40669 2H5.50669C3.31669 2 2.16669 3.15 2.16669 5.33V7.23C2.16669 9.41 3.31669 10.56 5.49669 10.56H7.39669C9.57669 10.56 10.7267 9.41 10.7267 7.23V5.33C10.7367 3.15 9.58669 2 7.40669 2Z" fill="#2F9DFE"/>
<path id="Vector_2" d="M18.8367 2H16.9367C14.7567 2 13.6067 3.15 13.6067 5.33V7.23C13.6067 9.41 14.7567 10.56 16.9367 10.56H18.8367C21.0167 10.56 22.1667 9.41 22.1667 7.23V5.33C22.1667 3.15 21.0167 2 18.8367 2Z" fill="#2F9DFE"/>
<path id="Vector_3" d="M18.8367 13.43H16.9367C14.7567 13.43 13.6067 14.58 13.6067 16.76V18.66C13.6067 20.84 14.7567 21.99 16.9367 21.99H18.8367C21.0167 21.99 22.1667 20.84 22.1667 18.66V16.76C22.1667 14.58 21.0167 13.43 18.8367 13.43Z" fill="#2F9DFE"/>
<path id="Vector_4" d="M7.40669 13.43H5.50669C3.31669 13.43 2.16669 14.58 2.16669 16.76V18.66C2.16669 20.85 3.31669 22 5.49669 22H7.39669C9.57669 22 10.7267 20.85 10.7267 18.67V16.77C10.7367 14.58 9.58669 13.43 7.40669 13.43Z" fill="#2F9DFE"/>
</g>
</g>
</svg>
