<svg width="24" height="24" viewBox="0 0 24 24" fill="none" xmlns="http://www.w3.org/2000/svg">
<g id="Sidebar/Variant6">
<path id="Subtract" fill-rule="evenodd" clip-rule="evenodd" d="M4.15469 4.31001C6.65975 2.16964 9.9938 2.7984 11.9932 5.13581C13.9925 2.7984 17.2835 2.19216 19.8316 4.31001C22.3797 6.42787 22.6893 10.029 20.7221 12.5604C19.2362 14.4724 15.015 18.311 13.0383 20.0749C12.6749 20.3991 12.4932 20.5613 12.2805 20.6251C12.0958 20.6805 11.8905 20.6805 11.7058 20.6251C11.4931 20.5613 11.3114 20.3991 10.948 20.0749C8.97129 18.311 4.75009 14.4724 3.2642 12.5604C1.29697 10.029 1.64964 6.45038 4.15469 4.31001ZM11.5692 8.31026C11.4925 8.08004 11.2846 7.91871 11.0425 7.90151C10.8005 7.88431 10.5719 8.01461 10.4633 8.23167L9.12918 10.9H8.5C8.16863 10.9 7.9 11.1686 7.9 11.5C7.9 11.8314 8.16863 12.1 8.5 12.1H9.5C9.72726 12.1 9.93502 11.9716 10.0367 11.7683L10.8889 10.0639L12.4308 14.6897C12.5075 14.92 12.7154 15.0813 12.9575 15.0985C13.1995 15.1157 13.4281 14.9854 13.5367 14.7683L14.8708 12.1H15.5C15.8314 12.1 16.1 11.8314 16.1 11.5C16.1 11.1686 15.8314 10.9 15.5 10.9H14.5C14.2727 10.9 14.065 11.0284 13.9633 11.2317L13.1111 12.9361L11.5692 8.31026Z" fill="#027BFE"/>
</g>
</svg>
