<svg width="24" height="24" viewBox="0 0 24 24" fill="none" xmlns="http://www.w3.org/2000/svg">
<g id="file-attachment-04">
<path id="Icon" d="M20 7V6.8C20 5.11984 20 4.27976 19.673 3.63803C19.3854 3.07354 18.9265 2.6146 18.362 2.32698C17.7202 2 16.8802 2 15.2 2H8.8C7.11984 2 6.27976 2 5.63803 2.32698C5.07354 2.6146 4.6146 3.07354 4.32698 3.63803C4 4.27976 4 5.11984 4 6.8V17.2C4 18.8802 4 19.7202 4.32698 20.362C4.6146 20.9265 5.07354 21.3854 5.63803 21.673C6.27976 22 7.11984 22 8.8 22H12.5M12.5 11H8M11.5 15H8M16 7H8" stroke="#027BFE" stroke-width="1.5" stroke-linecap="round" stroke-linejoin="round"/>
<path id="Icon_2" d="M18 17.999V12.499C18 11.6706 18.6716 10.999 19.5 10.999C20.3284 10.999 21 11.6706 21 12.499V17.999C21 19.6559 19.6569 20.999 18 20.999C16.3431 20.999 15 19.6559 15 17.999V13.999" stroke="#027BFE" stroke-width="1.5" stroke-linecap="round" stroke-linejoin="round"/>
</g>
</svg>
