<svg width="32" height="32" viewBox="0 0 32 32" fill="none" xmlns="http://www.w3.org/2000/svg">
<g id="Serum">
<path id="Vector" d="M17.3335 23.333V23.333C18.5735 23.333 19.1934 23.333 19.7021 23.1967C21.0825 22.8268 22.1607 21.7487 22.5305 20.3683C22.6668 19.8596 22.6668 19.2396 22.6668 17.9997V9.99968C22.6668 7.50737 22.6668 6.26121 22.1309 5.33301C21.7799 4.72493 21.2749 4.21998 20.6668 3.86891C19.7386 3.33301 18.4925 3.33301 16.0002 3.33301V3.33301C13.5079 3.33301 12.2617 3.33301 11.3335 3.86891C10.7254 4.21998 10.2205 4.72493 9.8694 5.33301C9.3335 6.26121 9.3335 7.50737 9.3335 9.99968V17.9997C9.3335 19.2396 9.3335 19.8596 9.46979 20.3683C9.83966 21.7487 10.9179 22.8268 12.2982 23.1967C12.8069 23.333 13.4269 23.333 14.6668 23.333V23.333M17.3335 23.333V23.9997C17.3335 24.7361 16.7365 25.333 16.0002 25.333C15.2638 25.333 14.6668 24.7361 14.6668 23.9997V23.333M17.3335 23.333H14.6668" stroke="#2F9DFE" stroke-width="1.5"/>
<path id="Vector_2" d="M9.3335 10H12.0002" stroke="#2F9DFE" stroke-width="1.5" stroke-linecap="round"/>
<path id="Vector_3" d="M9.3335 12.666H22.6668" stroke="#2F9DFE" stroke-width="1.5" stroke-linecap="round"/>
<path id="Vector_4" d="M9.3335 15.333H12.0002" stroke="#2F9DFE" stroke-width="1.5" stroke-linecap="round"/>
<path id="Vector_5" d="M10 18H12" stroke="#2F9DFE" stroke-width="1.5" stroke-linecap="round"/>
<path id="Vector_6" d="M16 25.333C16 27.333 16.6667 28.6663 18 28.6663" stroke="#2F9DFE" stroke-width="1.5" stroke-linecap="round"/>
</g>
</svg>
