<svg width="24" height="24" viewBox="0 0 24 24" fill="none" xmlns="http://www.w3.org/2000/svg">
<g id="file-heart-02">
<path id="Icon" d="M20 10V6.8C20 5.11984 20 4.27976 19.673 3.63803C19.3854 3.07354 18.9265 2.6146 18.362 2.32698C17.7202 2 16.8802 2 15.2 2H8.8C7.11984 2 6.27976 2 5.63803 2.32698C5.07354 2.6146 4.6146 3.07354 4.32698 3.63803C4 4.27976 4 5.11984 4 6.8V17.2C4 18.8802 4 19.7202 4.32698 20.362C4.6146 20.9265 5.07354 21.3854 5.63803 21.673C6.27976 22 7.11984 22 8.8 22H12M12.5 11H8M9 15H8M16 7H8" stroke="#027BFE" stroke-width="1.5" stroke-linecap="round" stroke-linejoin="round"/>
<path id="Icon_2" d="M13.8621 14.5085C14.8641 13.6761 16.1977 13.9206 16.9974 14.8296C17.7972 13.9206 19.1136 13.6849 20.1328 14.5085C21.1521 15.3321 21.2759 16.7325 20.489 17.717C19.7021 18.7014 16.9974 20.999 16.9974 20.999C16.9974 20.999 14.5116 18.9349 13.5059 17.717C12.5001 16.499 13.042 15.1897 13.8621 14.5085Z" stroke="#027BFE" stroke-width="1.5" stroke-linecap="round" stroke-linejoin="round"/>
</g>
</svg>
