<svg width="16" height="16" viewBox="0 0 16 16" fill="none" xmlns="http://www.w3.org/2000/svg">
<g id="vuesax/linear/camera">
<g id="camera">
<path id="Vector" d="M4.50662 14.6663H11.4933C13.3333 14.6663 14.0666 13.5397 14.1533 12.1663L14.4999 6.65967C14.5933 5.21967 13.4466 3.99967 11.9999 3.99967C11.5933 3.99967 11.2199 3.76634 11.0333 3.40634L10.5533 2.43967C10.2466 1.83301 9.44662 1.33301 8.76662 1.33301H7.23995C6.55328 1.33301 5.75328 1.83301 5.44662 2.43967L4.96662 3.40634C4.77995 3.76634 4.40662 3.99967 3.99995 3.99967C2.55328 3.99967 1.40662 5.21967 1.49995 6.65967L1.84662 12.1663C1.92662 13.5397 2.66662 14.6663 4.50662 14.6663Z" stroke="white" stroke-width="1.5" stroke-linecap="round" stroke-linejoin="round"/>
<path id="Vector_2" d="M7 5.33301H9" stroke="white" stroke-width="1.5" stroke-linecap="round" stroke-linejoin="round"/>
<path id="Vector_3" d="M7.99992 12.0003C9.19325 12.0003 10.1666 11.027 10.1666 9.83366C10.1666 8.64033 9.19325 7.66699 7.99992 7.66699C6.80659 7.66699 5.83325 8.64033 5.83325 9.83366C5.83325 11.027 6.80659 12.0003 7.99992 12.0003Z" stroke="white" stroke-width="1.5" stroke-linecap="round" stroke-linejoin="round"/>
</g>
</g>
</svg>
