<svg width="25" height="24" viewBox="0 0 25 24" fill="none" xmlns="http://www.w3.org/2000/svg">
<g id="vuesax/linear/category">
<g id="category">
<path id="Vector" d="M5.16669 10H7.16669C9.16669 10 10.1667 9 10.1667 7V5C10.1667 3 9.16669 2 7.16669 2H5.16669C3.16669 2 2.16669 3 2.16669 5V7C2.16669 9 3.16669 10 5.16669 10Z" stroke="#A9A9A9" stroke-width="1.5" stroke-miterlimit="10" stroke-linecap="round" stroke-linejoin="round"/>
<path id="Vector_2" d="M17.1667 10H19.1667C21.1667 10 22.1667 9 22.1667 7V5C22.1667 3 21.1667 2 19.1667 2H17.1667C15.1667 2 14.1667 3 14.1667 5V7C14.1667 9 15.1667 10 17.1667 10Z" stroke="#A9A9A9" stroke-width="1.5" stroke-miterlimit="10" stroke-linecap="round" stroke-linejoin="round"/>
<path id="Vector_3" d="M17.1667 22H19.1667C21.1667 22 22.1667 21 22.1667 19V17C22.1667 15 21.1667 14 19.1667 14H17.1667C15.1667 14 14.1667 15 14.1667 17V19C14.1667 21 15.1667 22 17.1667 22Z" stroke="#A9A9A9" stroke-width="1.5" stroke-miterlimit="10" stroke-linecap="round" stroke-linejoin="round"/>
<path id="Vector_4" d="M5.16669 22H7.16669C9.16669 22 10.1667 21 10.1667 19V17C10.1667 15 9.16669 14 7.16669 14H5.16669C3.16669 14 2.16669 15 2.16669 17V19C2.16669 21 3.16669 22 5.16669 22Z" stroke="#A9A9A9" stroke-width="1.5" stroke-miterlimit="10" stroke-linecap="round" stroke-linejoin="round"/>
</g>
</g>
</svg>
